<?xml version="1.0" encoding="UTF-8" standalone="no"?>
<svg
   xmlns:dc="http://purl.org/dc/elements/1.1/"
   xmlns:cc="http://creativecommons.org/ns#"
   xmlns:rdf="http://www.w3.org/1999/02/22-rdf-syntax-ns#"
   xmlns:svg="http://www.w3.org/2000/svg"
   xmlns="http://www.w3.org/2000/svg"
   xmlns:sodipodi="http://sodipodi.sourceforge.net/DTD/sodipodi-0.dtd"
   xmlns:inkscape="http://www.inkscape.org/namespaces/inkscape"
   version="1.1"
   id="svg2"
   viewBox="0 0 2048 1448"
   height="1448"
   width="2048"
   inkscape:version="0.91 r13725"
   sodipodi:docname="quadcopter_icon_03.s.svg"
   inkscape:export-filename="V:\Kunst\Grafik\Commons\Icons\aerial\quadcopter_icon_03.s.png"
   inkscape:export-xdpi="180"
   inkscape:export-ydpi="180">
  <sodipodi:namedview
     pagecolor="#ffffff"
     bordercolor="#666666"
     borderopacity="1"
     objecttolerance="10"
     gridtolerance="10"
     guidetolerance="10"
     inkscape:pageopacity="0"
     inkscape:pageshadow="2"
     inkscape:window-width="640"
     inkscape:window-height="480"
     id="namedview7"
     showgrid="false"
     inkscape:zoom="0.23046875"
     inkscape:cx="1085.3277"
     inkscape:cy="884.03398"
     inkscape:current-layer="svg2" />
  <defs
     id="defs4" />
  <metadata
     id="metadata7">
    <rdf:RDF>
      <cc:Work
         rdf:about="">
        <dc:format>image/svg+xml</dc:format>
        <dc:type
           rdf:resource="http://purl.org/dc/dcmitype/StillImage" />
        <dc:title></dc:title>
      </cc:Work>
    </rdf:RDF>
  </metadata>
  <g
     style="display:inline;opacity:1"
     transform="translate(0,-5549.4995)"
     id="g4353">
    <path
       transform="translate(0,5208.6928)"
       id="ellipse4357"
       d="M 405.60938,550.16797 C 185.03119,551.22788 19.864161,627.3075 8.9824219,733.81445 2.818598,794.13766 47.447704,857.15348 133.05078,909 c 85.60308,51.84651 205.16794,88.27668 332.39258,101.2754 56.36221,5.6604 112.7285,6.5649 166.51367,2.6719 -32.77984,-14.85942 -69.11979,-30.16277 -109.21484,-46.49027 -15.87341,-0.58035 -31.82125,-1.65682 -47.74414,-3.22265 -204.372,-20.88095 -362.0225,-116.363 -352.12305,-213.26563 8.52755,-83.46597 139.88267,-142.70891 314.10156,-141.66406 24.43605,0.14648 49.18438,1.49107 73.875,4.01367 204.37367,20.88106 362.02483,116.36439 352.12305,213.26758 -4.03509,38.54305 -34.73652,73.262 -87.35938,98.79101 32.23922,10.0023 64.77575,18.77203 98.45118,25.58203 56.75546,-31.9869 89.58033,-73.09734 94.31445,-118.12109 C 974.54468,771.51468 929.91558,708.49885 844.3125,656.65234 758.70942,604.80583 639.14455,568.37565 511.91992,555.37695 c -32.00693,-3.27014 -64.08868,-5.0132 -95.76562,-5.20312 -3.52877,-0.0212 -7.04369,-0.0227 -10.54492,-0.006 z m 1236.78122,0 c -3.5012,-0.0168 -7.0161,-0.0153 -10.5449,0.006 -31.6769,0.18992 -63.7587,1.93298 -95.7656,5.20312 -127.2246,12.99869 -246.7895,49.42888 -332.3926,101.27539 -85.6031,51.84651 -130.2322,114.86234 -124.0684,175.18555 4.679,45.02709 37.448,86.14892 94.1543,118.1543 33.7954,-6.8272 66.4436,-15.63028 98.793,-25.67188 -52.6713,-25.50291 -83.4364,-60.20245 -87.541,-98.73633 -9.8994,-96.90261 147.751,-192.38466 352.123,-213.26562 24.6906,-2.5226 49.4389,-3.86719 73.875,-4.01367 174.2189,-1.04485 305.574,58.19809 314.1016,141.66406 9.8995,96.90262 -147.751,192.38467 -352.123,213.26563 -15.8943,1.55177 -31.812,2.61582 -47.6543,3.18554 -40.2232,16.3791 -76.6673,31.728 -109.5313,46.63084 53.868,3.8701 110.3131,2.9306 166.7402,-2.7754 C 1709.7812,997.27669 1829.3461,960.84652 1914.9492,909 2000.5523,857.15349 2045.1814,794.13767 2039.0176,733.81445 2028.1358,627.30749 1862.9688,551.22788 1642.3906,550.16797 Z M 496.16211,817.32422 c -21.39379,-0.13801 -42.63912,1.62891 -46.32813,5.22656 -9.94726,9.7008 -11.33398,32.71466 -11.33398,45.03516 0,18.81126 14.81563,34.9117 35.82422,41.59765 l -0.0918,0.0332 c 178.08765,70.9248 294.10114,119.91301 371.60742,194.76561 -37.97645,53.7335 -106.30592,86.5126 -181.01562,119.3028 -1.03169,-2.7351 -2.44394,-5.1731 -4.41016,-7.0215 -6.02537,-5.6643 -60.63431,-5.7525 -65.82617,-0.6895 -6.99958,6.8262 -7.97461,23.0199 -7.97461,31.6895 0,17.4536 18.11567,31.6035 40.46289,31.6035 8.48075,0 16.34846,-2.0407 22.85156,-5.5234 73.30006,-28.7837 151.52507,-64.26 271.25977,-77.5665 l 0,-3.0918 c 0.002,-20.3387 19.12446,-34.594 31.56026,-44.1496 l 10.01954,-7.6989 0,51.8485 -9.21597,0 0,50.877 148.60097,0 c 25.2496,0 49.4977,18.3928 61.1778,33.0078 11.68,14.6148 21.9097,33.8111 22.2441,54.1699 l 0.7715,46.916 -4.4707,-14.0507 -24.0508,0 0,16.7773 c -22.0508,-55.0029 -75.3353,-91.0677 -134.5937,-91.0976 -80.12875,0 -145.08594,64.9572 -145.08597,145.0859 3e-5,80.1287 64.95722,145.0859 145.08597,145.0859 59.2888,-0.05 112.5819,-36.1694 134.5937,-91.2207 l 0,10.4239 24.0508,0 6.4746,-23.125 0,-3.0157 26.8965,-0.055 3.5351,-23.8964 -2.164,-120.7969 c -0.7871,-39.7102 -8.7191,-66.9314 -27.5762,-89.6777 -21.8149,-26.3144 -75.9882,-44.977 -103.7737,-45.3887 l 0,-52.1884 33.2073,16.536 c 36.1492,4.8545 69.8187,24.368 95.4082,53.4414 73.7355,16.928 130.3073,41.6911 184.1895,62.8497 6.5031,3.4825 14.3708,5.5234 22.8515,5.5234 22.3472,0 40.4629,-14.1499 40.4629,-31.6035 0,-8.6696 -0.975,-24.8633 -7.9746,-31.6895 -5.1918,-5.063 -59.8009,-4.9748 -65.8262,0.6895 -1.9662,1.8484 -3.3784,4.2864 -4.4101,7.0215 -74.7102,-32.7904 -143.039,-65.569 -181.0156,-119.3028 77.5063,-74.8526 193.5198,-123.84081 371.6074,-194.76561 l -0.092,-0.0332 c 21.0086,-6.68595 35.8242,-22.78639 35.8242,-41.59765 0,-12.3205 -1.3867,-35.33436 -11.334,-45.03516 -7.378,-7.1953 -84.9844,-7.06893 -93.5469,0.98047 -10.5333,9.9021 -10.125,31.51239 -10.125,44.05469 0,5.17928 1.1377,10.14792 3.2032,14.77734 -156.5149,53.43022 -288.9602,117.67582 -472.0625,117.67582 l -3.2696,0 c -183.10219,0 -315.54757,-64.2456 -472.06247,-117.67582 2.06544,-4.62942 3.20313,-9.59806 3.20313,-14.77734 0,-12.5423 0.40833,-34.15259 -10.125,-44.05469 -4.28127,-4.0247 -25.82496,-6.06902 -47.21875,-6.20703 z m 82.92578,240.33788 c -173.44528,-0.1323 -305.9272,46.5863 -309.40039,110.4082 -3.8534,70.8394 151.86466,136.9088 347.80664,147.5703 127.9877,6.8732 247.27619,-11.714 312.16602,-48.6406 -5.46184,-6.5906 -8.45766,-14.8778 -8.47266,-23.4375 l 0,-12.6504 c -11.91643,1.3673 -23.41097,2.9501 -34.48047,4.7441 -29.85813,28.8986 -97.94892,48.9755 -183.1543,54.004 -13.16604,5.2368 -26.1599,10.4791 -39.1582,15.5957 -11.33353,5.6514 -24.03269,8.6093 -37.31836,8.6093 -18.56075,0 -36.02775,-5.6386 -50.15625,-16.6738 -4.53804,-3.5445 -8.76524,-7.8209 -12.42187,-12.6738 -128.19115,-16.6082 -218.34973,-62.5862 -215.91407,-110.1094 2.80115,-51.4933 113.0483,-88.7421 255.04688,-86.1719 9.21785,0.167 18.46704,0.5027 27.71289,1.0059 56.02387,3.0872 110.36755,12.2356 155.87305,26.2402 3.23218,-2.6925 6.33699,-5.4232 9.29492,-8.2012 -14.90597,-11.9797 -31.36978,-23.4434 -49.50391,-34.664 -37.01445,-6.7444 -76.06948,-11.3104 -115.55469,-13.5098 -11.82896,-0.6432 -23.6621,-1.0721 -35.45507,-1.2851 -5.67731,-0.1028 -11.31515,-0.1559 -16.91016,-0.1602 z m 885.41601,0.014 c -4.1595,0.022 -8.3273,0.069 -12.5019,0.1445 -11.7931,0.2137 -23.6262,0.6433 -35.4551,1.2871 -39.4769,2.1963 -78.5252,6.7584 -115.5352,13.4981 -18.1418,11.2244 -34.6121,22.6916 -49.5234,34.6757 2.9248,2.7469 5.9924,5.4481 9.1855,8.1114 45.5666,-13.9813 99.949,-23.0985 155.9824,-26.1504 9.246,-0.5032 18.495,-0.8389 27.7129,-1.0059 141.9986,-2.5702 252.2458,34.6786 255.0469,86.1719 2.5649,47.5642 -87.663,93.6058 -215.9922,110.2168 -3.6383,4.8093 -7.8387,9.0477 -12.3437,12.5664 -14.1285,11.0352 -31.5955,16.6738 -50.1563,16.6738 -13.2856,0 -25.9848,-2.9579 -37.3183,-8.6093 -13.0945,-5.1545 -26.1825,-10.4375 -39.4493,-15.7129 -35.3933,-2.0967 -68.3563,-6.8297 -96.9589,-13.9219 2.5201,10.3096 4.2291,21.1111 5.2246,32.3574 54.4435,8.3541 115.859,10.9965 178.084,7.6621 195.942,-10.6615 351.66,-76.7309 347.8066,-147.5703 -3.3939,-62.4283 -130.6163,-109.0264 -301.3574,-110.3789 -4.1405,-0.033 -8.2917,-0.037 -12.4512,-0.016 z m -441.2734,253.7168 c 67.9194,-5e-4 122.979,55.0591 122.9785,122.9785 -6e-4,67.9186 -55.0599,122.9771 -122.9785,122.9766 -67.91786,-6e-4 -122.97603,-55.0587 -122.97659,-122.9766 -4.9e-4,-67.9186 55.05798,-122.9779 122.97659,-122.9785 z m 0,24.832 c -54.20437,3e-4 -98.14531,43.9421 -98.14456,98.1465 3.5e-4,54.2036 43.94097,98.1442 98.14456,98.1445 54.2036,-4e-4 98.1441,-43.9409 98.1445,-98.1445 8e-4,-54.2043 -43.9402,-98.1461 -98.1445,-98.1465 z m -1.6739,7.5899 c 21.3193,0.1392 40.4446,9.3561 50.3067,26.5136 16.2883,28.3378 -20.6126,28.455 -55.5879,48.5586 -34.97532,20.1038 -54.78196,52.5819 -71.07032,24.2442 -16.28834,-28.3377 -1.13932,-67.6074 33.83594,-87.711 13.11572,-7.5388 27.15798,-11.3127 40.44528,-11.5898 0.6921,-0.014 1.3826,-0.02 2.0703,-0.016 z"
       style="color:#000000;display:inline;overflow:visible;visibility:visible;opacity:1;fill:#000000;fill-opacity:1;fill-rule:nonzero;stroke:none;stroke-width:8;stroke-linecap:round;stroke-linejoin:round;stroke-miterlimit:4;stroke-dasharray:none;stroke-dashoffset:0;stroke-opacity:0.59607843;marker:none;enable-background:accumulate"
       inkscape:connector-curvature="0" />
  </g>
</svg>
